<svg xmlns="http://www.w3.org/2000/svg" width="474" height="167" viewBox="0 0 474 167" version="1.1">
	<path d="M 313.250 27.734 L 306 28.088 306 78.589 L 306 129.091 312.664 128.796 C 319.160 128.508, 319.356 128.419, 320.414 125.322 C 321.969 120.769, 322.120 120.750, 326.852 124.495 C 334.155 130.274, 350.435 131.857, 359.150 127.635 C 378.300 118.358, 383.188 81.497, 367.562 64.200 C 358.123 53.753, 337.770 52.514, 327.002 61.730 L 322.921 65.224 323.048 46.362 C 323.151 31.241, 322.911 27.488, 321.838 27.440 C 321.102 27.407, 317.238 27.539, 313.250 27.734 M 28 73.304 L 28 118.607 30.595 123.814 C 32.022 126.678, 35.099 130.586, 37.432 132.498 C 45.363 138.997, 45.392 139, 95.165 139 L 140.078 139 139.789 94.250 C 139.461 43.458, 139.426 43.232, 130.767 35.409 C 122.408 27.857, 123.887 28.047, 73.250 28.022 L 28 28 28 73.304 M 88.026 57.096 C 83.032 58.074, 70 61.981, 70 62.500 C 70 63.022, 74.083 72.416, 74.484 72.817 C 74.681 73.014, 78.365 71.958, 82.671 70.470 C 100.595 64.277, 110 67.952, 110 81.149 L 110 85 104.250 85.031 C 76.086 85.182, 64.067 93.011, 65.180 110.482 C 65.950 122.582, 73.896 129.461, 86.991 129.364 C 96.017 129.297, 100.966 127.662, 106.264 122.999 C 111.843 118.088, 111.477 118.061, 113 123.500 L 114.260 128 119.687 128 L 125.114 128 124.807 99.750 C 124.514 72.761, 124.401 71.314, 122.273 67.334 C 117.316 58.064, 103.764 54.012, 88.026 57.096 M 173.332 57.851 C 158.903 62.838, 152.348 75.395, 153.189 96.440 C 153.823 112.272, 158.695 121.054, 170.278 127.244 C 175.843 130.218, 197.058 130.498, 203.250 127.680 L 207 125.973 207 118.987 C 207 115.144, 206.887 112, 206.750 112.001 C 206.613 112.001, 204.025 112.971, 201 114.156 C 193.462 117.109, 182.793 117.260, 178.062 114.480 C 168.218 108.696, 166.050 84.329, 174.524 74.702 C 179.625 68.906, 187.406 67.626, 197.823 70.868 L 203.824 72.735 205.912 67.279 C 207.060 64.278, 208 61.246, 208 60.543 C 208 56.452, 182.998 54.511, 173.332 57.851 M 244.205 57.894 C 229.305 63.041, 222.243 75.832, 223.210 95.920 C 224.313 118.824, 236.970 130.791, 259 129.759 C 269.123 129.285, 273.631 127.706, 279.886 122.442 C 295.752 109.092, 294.289 73.462, 277.395 61.770 C 269.024 55.977, 254.624 54.295, 244.205 57.894 M 402.285 58.001 C 396.342 59.558, 391.755 61.264, 390.237 62.482 C 390.092 62.598, 391.121 65.285, 392.522 68.454 C 394.503 72.933, 395.451 74.088, 396.785 73.643 C 397.728 73.329, 401.870 71.884, 405.989 70.432 C 420.672 65.256, 430.492 69.129, 429.802 79.824 L 429.500 84.500 417.500 85.159 C 393.537 86.475, 384.074 93.812, 385.244 110.170 C 386.229 123.940, 393.100 129.521, 409 129.468 C 419.573 129.433, 422.563 128.370, 428.342 122.591 L 431.716 119.217 433.153 123.859 L 434.591 128.500 440.295 128.800 L 446 129.100 446 100.746 C 446 72.527, 445.988 72.369, 443.511 67.446 C 438.100 56.694, 421.652 52.925, 402.285 58.001 M 248.500 71.266 C 242.115 74.832, 239.501 81.146, 239.500 93 C 239.500 109.674, 245.820 117.627, 258.286 116.641 C 264.982 116.111, 267.924 114.478, 270.924 109.623 C 275.841 101.667, 275.778 84.231, 270.803 76.181 C 266.634 69.436, 255.982 67.089, 248.500 71.266 M 331.984 70.818 C 326.042 73.919, 323.570 80.360, 323.626 92.595 C 323.704 109.822, 329.602 117.508, 342.152 116.735 C 353.950 116.008, 358.489 109.272, 358.484 92.500 C 358.481 81.177, 357.504 77.604, 353.130 72.909 C 349.213 68.705, 338.134 67.609, 331.984 70.818 M 98 94.973 C 86.385 96.203, 81.650 99.195, 80.495 106.032 C 78.851 115.761, 88.679 121.086, 99.746 116.462 C 107.010 113.427, 110 108.445, 110 99.378 C 110 93.263, 110.926 93.603, 98 94.973 M 414.153 96.074 C 407.625 97.358, 403.678 100.066, 402.309 104.199 C 399.736 111.972, 404.346 117.488, 413.306 117.359 C 423.697 117.209, 430 110.945, 430 100.768 L 430 95 424.250 95.110 C 421.087 95.170, 416.544 95.604, 414.153 96.074" stroke="none" fill="#111111" fill-rule="evenodd"/>
</svg>