<svg xmlns="http://www.w3.org/2000/svg" width="1920" height="1080" viewBox="0 0 1920 1080" version="1.1">
	<path d="M 668.834 224.567 C 643.163 229.212, 624.513 244.570, 616.474 267.686 C 612.244 279.851, 611 290.399, 611 314.110 L 611 335.958 591.274 336.229 L 571.549 336.500 562.793 360.500 C 557.977 373.700, 554.028 384.613, 554.018 384.750 C 554.008 384.887, 566.825 385, 582.500 385 L 611 385 611 473 L 611 561 640.500 561 L 670 561 670 504.663 C 670 473.678, 670.298 434.078, 670.662 416.663 L 671.323 385 697.679 385 L 724.036 385 723.768 360.750 L 723.500 336.500 696.749 336.500 L 669.999 336.500 670.007 320.500 C 670.023 289.167, 672.573 280.148, 683 274.544 C 690.290 270.626, 707.350 269.832, 721.250 272.765 L 730 274.612 730 251.386 L 730 228.160 723.250 226.634 C 706.498 222.846, 683.228 221.962, 668.834 224.567 M 829.729 332.512 C 774.209 341.846, 741.008 384.690, 741.008 447 C 741.008 507.805, 768.390 545.876, 820.500 557.525 C 831.498 559.983, 858.398 560.543, 870.500 558.564 C 928.338 549.110, 963.349 501.777, 960.712 436.607 C 958.344 378.071, 928.162 341.008, 875.973 332.544 C 864.501 330.684, 840.700 330.667, 829.729 332.512 M 991.525 336.959 C 991.199 337.487, 987.188 348.062, 982.613 360.459 L 974.293 383 996.147 383 L 1018 383 1018 471.500 L 1018 560 1046.933 560 L 1075.866 560 1076.271 503.750 C 1076.624 454.601, 1076.897 446.553, 1078.429 440 C 1084.410 414.421, 1097.780 406.057, 1132.750 406.017 L 1148 406 1148 371.500 L 1148 337 1141.250 337.007 C 1106.885 337.043, 1079.135 361.481, 1070.857 399 L 1068.982 407.500 1069.499 396.500 C 1069.784 390.450, 1070.305 374.363, 1070.658 360.750 L 1071.299 336 1031.709 336 C 1007.510 336, 991.888 336.373, 991.525 336.959 M 1175 336.546 C 1175 336.846, 1184.049 361.934, 1195.108 392.296 C 1206.168 422.658, 1224.366 472.636, 1235.549 503.357 C 1246.731 534.078, 1256.027 559.361, 1256.207 559.540 C 1256.730 560.063, 1314 560.333, 1314.518 559.815 C 1314.776 559.557, 1329.643 518.656, 1347.555 468.923 C 1365.468 419.190, 1383.292 369.725, 1387.165 359 C 1391.038 348.275, 1394.437 338.712, 1394.720 337.750 C 1395.201 336.111, 1393.332 336, 1365.194 336 L 1335.155 336 1332.152 345.750 C 1330.500 351.113, 1320.757 383.400, 1310.501 417.500 C 1285.085 502.007, 1286.026 499, 1285 499 C 1284.152 499, 1281.614 491.404, 1272.637 462 C 1263.378 431.668, 1236.726 344.954, 1235.371 340.750 L 1233.839 336 1204.420 336 C 1188.239 336, 1175 336.246, 1175 336.546 M 1450.889 338.750 C 1450.305 340.262, 1434.991 382.225, 1416.857 432 C 1398.723 481.775, 1380.832 530.825, 1377.098 541 C 1373.364 551.175, 1370.491 559.837, 1370.714 560.250 C 1371.460 561.634, 1428.632 561.150, 1429.777 559.750 C 1430.813 558.484, 1511 338.429, 1511 336.854 C 1511 336.384, 1497.714 336, 1481.475 336 L 1451.950 336 1450.889 338.750 M 1602 336.583 C 1600.625 336.825, 1596.800 337.492, 1593.500 338.064 C 1554.573 344.815, 1529.704 371.550, 1531.248 404.988 C 1532.625 434.812, 1549.060 451.455, 1592.500 467.014 C 1631.729 481.064, 1640 486.808, 1640 500 C 1640 511.376, 1631.373 518.370, 1615.845 519.584 C 1595.976 521.137, 1575.037 511.079, 1562.453 493.936 C 1560.424 491.172, 1558.412 489.044, 1557.981 489.206 C 1556.232 489.862, 1523.478 518.406, 1523.205 519.512 C 1522.843 520.975, 1529.198 529.131, 1535.676 535.517 C 1546.302 545.993, 1562.122 554.313, 1580.845 559.273 C 1597.855 563.780, 1628.483 563.987, 1645.500 559.710 C 1682.190 550.489, 1702.320 528.273, 1702.320 497 C 1702.320 464.201, 1685.727 447.064, 1637.017 429.558 C 1613.524 421.115, 1605.032 417.007, 1599.009 411.172 C 1582.131 394.821, 1599.349 375.078, 1627.058 379.008 C 1640.109 380.859, 1654.364 390.038, 1661 400.863 C 1662.375 403.106, 1663.825 404.842, 1664.222 404.721 C 1665.914 404.203, 1700 373.858, 1700 372.869 C 1700 370.711, 1681.287 353.416, 1674.966 349.731 C 1666.781 344.960, 1655.631 340.647, 1646 338.526 C 1638.774 336.935, 1607.769 335.566, 1602 336.583 M 838.786 377.867 C 813.995 384.334, 801.756 412.736, 805.051 456.152 C 807.204 484.510, 816.093 502.492, 831.772 510.207 C 838.215 513.377, 838.913 513.500, 850.482 513.500 C 864.862 513.500, 872.379 510.716, 880.836 502.259 C 903.842 479.253, 904.141 410.731, 881.337 387.600 C 871.188 377.305, 855.071 373.619, 838.786 377.867 M 392.075 617.025 C 363.666 623, 340.765 644.692, 331.358 674.535 C 329.043 681.878, 327.455 681.328, 324.047 672 C 314.191 645.023, 299.486 629.029, 277.490 621.362 C 269.565 618.599, 269.257 618.574, 239.750 618.199 L 210 617.822 210 643.911 L 210 670 239 670 L 268 670 268 758.500 L 268 847 299.446 847 L 330.892 847 331.235 782.750 C 331.569 720.315, 331.640 718.280, 333.760 710.704 C 338.887 692.383, 348.154 679.998, 361.773 673.268 C 376.084 666.195, 393.962 668.443, 401.033 678.205 C 408.522 688.542, 408.957 693.914, 408.980 776.250 L 409 847 440.458 847 L 471.916 847 472.234 783.750 C 472.544 722.001, 472.604 720.310, 474.770 712.500 C 481.763 687.282, 495.769 672.525, 515.395 669.697 C 531.083 667.437, 540.610 672.830, 545.077 686.500 C 547.309 693.332, 547.379 694.796, 547.977 747.500 L 548.590 801.500 551.273 809.500 C 556.361 824.674, 565.810 835.703, 579.530 842.482 C 587.906 846.621, 600.356 850, 607.230 850 L 612.139 850 611.713 764.750 C 611.242 670.577, 611.313 671.698, 604.705 654.139 C 595.204 628.890, 576.175 616, 548.405 616 C 514.922 616, 488.200 635.478, 474.766 669.679 C 471.619 677.690, 469.008 680.436, 468.993 675.750 C 468.977 670.664, 464.661 655.966, 460.897 648.180 C 454.036 633.987, 443.137 624.522, 427.022 618.762 C 420.682 616.495, 399.578 615.446, 392.075 617.025 M 734 616.695 C 696.980 620.659, 664.532 639.209, 649.834 664.809 C 648.157 667.729, 646.946 670.267, 647.143 670.448 C 647.917 671.161, 694.342 695.983, 694.465 695.750 C 694.536 695.612, 695.082 694.375, 695.676 693 C 704.394 672.845, 731.399 659.740, 755.569 663.934 C 773.675 667.077, 781.426 675.821, 782.707 694.551 C 783.231 702.219, 783.144 702.675, 780.879 704.147 C 775.884 707.391, 764.277 710.525, 731 717.617 C 675.152 729.520, 652.671 745.032, 646.437 775.966 C 640.185 806.992, 654.411 832.822, 683 842.353 C 721.648 855.237, 765.612 840.530, 780.645 809.687 L 783.478 803.875 784.653 814.474 C 785.927 825.977, 789.019 837.603, 792.172 842.750 L 794.163 846 826.088 846 L 858.013 846 855.116 842.002 C 851.908 837.573, 848.679 826.715, 846.939 814.500 C 846.259 809.735, 845.503 781.227, 845.067 744 C 844.266 675.519, 844.371 676.718, 837.716 660.338 C 825.864 631.171, 795.629 615.680, 751.500 616.166 C 743.800 616.251, 735.925 616.489, 734 616.695 M 1203 616.674 C 1173.148 619.695, 1148.010 629.980, 1130.229 646.447 C 1123.559 652.624, 1112.474 668.197, 1113.276 670.264 C 1113.625 671.163, 1153.629 693.473, 1159.036 695.783 C 1159.400 695.939, 1161.453 693.063, 1163.599 689.392 C 1173.381 672.658, 1190.787 663.401, 1212 663.652 C 1235.435 663.928, 1246.840 673.614, 1247.818 694.069 C 1248.217 702.420, 1248.130 702.869, 1245.814 704.386 C 1241.586 707.156, 1232.167 709.907, 1211.044 714.541 C 1179.618 721.434, 1173.317 723.016, 1162.500 726.725 C 1127.216 738.822, 1111.030 758.407, 1111.030 789 C 1111.030 823.701, 1131.983 843.647, 1171.500 846.565 C 1203.385 848.918, 1232.872 834.915, 1245.136 811.595 L 1248.768 804.690 1249.439 811.095 C 1250.947 825.481, 1254.551 838.888, 1258.136 843.446 L 1260.145 846 1291.531 846 L 1322.917 846 1319.974 841.250 C 1312.272 828.819, 1310.928 815.372, 1310.058 742 C 1309.232 672.431, 1309.333 673.369, 1300.765 656 C 1286.778 627.645, 1248.147 612.106, 1203 616.674 M 896.449 622.273 C 896.180 622.973, 896.082 633.660, 896.230 646.023 L 896.500 668.500 955.217 669 L 1013.935 669.500 952.967 734.765 L 892 800.031 892 823.015 L 892 846 986 846 L 1080 846 1080 821 L 1080 796 1021 796 C 988.550 796, 962 795.769, 962 795.488 C 962 795.206, 987.875 767.079, 1019.500 732.983 L 1077 670.990 1077 645.995 L 1077 621 986.969 621 C 915.012 621, 896.839 621.255, 896.449 622.273 M 1351.522 622.750 C 1351.142 623.712, 1347.529 633.500, 1343.494 644.500 C 1339.459 655.500, 1335.849 665.288, 1335.472 666.250 C 1334.831 667.885, 1336.244 668, 1356.893 668 L 1379 668 1379 757.500 L 1379 847 1407.856 847 L 1436.713 847 1437.304 793.250 C 1438.012 728.848, 1439.125 719.292, 1447.301 707.429 C 1455.287 695.840, 1465.778 692.014, 1492 691.126 L 1510.500 690.500 1510.500 656 L 1510.500 621.500 1502 621.648 C 1467.929 622.241, 1439.981 647.111, 1432.526 683.471 C 1430.792 691.926, 1429.363 695.221, 1430.344 688.500 C 1430.666 686.300, 1431.238 670.212, 1431.617 652.750 L 1432.306 621 1392.260 621 C 1355.051 621, 1352.165 621.124, 1351.522 622.750 M 1599.500 621.707 C 1556.832 627.498, 1529.617 654.724, 1531.249 689.988 C 1532.615 719.499, 1550.192 737.306, 1592.500 752.039 C 1630.344 765.219, 1640 771.919, 1640 785 C 1640 797.760, 1629.907 804.488, 1611 804.334 C 1592.294 804.182, 1576.413 796.100, 1563.886 780.357 C 1561.104 776.860, 1558.529 774.002, 1558.164 774.005 C 1556.940 774.014, 1523.504 803.076, 1523.207 804.389 C 1522.763 806.352, 1533.052 818.926, 1539.130 823.849 C 1558.807 839.787, 1584.413 848.010, 1614.322 847.994 C 1670.878 847.964, 1707.531 817.344, 1702.067 774.690 C 1698.171 744.282, 1683.770 731.245, 1634.500 713.520 C 1613.081 705.815, 1604.764 701.748, 1598.994 696.157 C 1582.091 679.782, 1599.642 659.719, 1627.172 663.947 C 1640.486 665.992, 1654.309 674.948, 1661 685.863 C 1662.375 688.106, 1663.826 689.842, 1664.224 689.721 C 1666.045 689.165, 1699.896 659.359, 1699.945 658.269 C 1700.032 656.316, 1687.143 643.201, 1680.525 638.508 C 1662.997 626.080, 1643.984 620.874, 1617.119 621.150 C 1609.079 621.232, 1601.150 621.483, 1599.500 621.707 M 778.113 733.248 C 775.150 734.912, 764.800 738.708, 755.113 741.683 C 719.380 752.657, 710.074 760.167, 710.022 778.071 C 709.971 795.713, 721.447 805.923, 740 804.743 C 758.502 803.566, 774.719 791.080, 782.084 772.340 C 784.108 767.192, 784.428 764.337, 784.785 748.250 C 785.008 738.212, 784.810 730.050, 784.345 730.111 C 783.880 730.172, 781.076 731.584, 778.113 733.248 M 1243 733.717 C 1239.425 735.486, 1228.450 739.449, 1218.611 742.524 C 1192.053 750.824, 1183.797 755.386, 1178.249 764.824 C 1172.245 775.038, 1175.490 792.560, 1184.685 799.573 C 1200.460 811.605, 1228.866 803.200, 1242.213 782.550 C 1248.758 772.423, 1250.095 766.136, 1249.775 746.988 L 1249.500 730.500 1243 733.717" stroke="none" fill="#111111" fill-rule="evenodd"/>
</svg>