<svg xmlns="http://www.w3.org/2000/svg" width="150" height="98" viewBox="0 0 150 98" version="1.1">
	<path d="M 56.996 0.750 C 56.994 1.163, 54.981 2.327, 52.523 3.338 C 50.065 4.349, 46.530 6.387, 44.667 7.867 C 42.805 9.347, 38.253 12.095, 34.552 13.973 C 27.278 17.665, 16.110 27.348, 11.572 33.897 C 7.853 39.262, 8.890 41.879, 18.521 51.430 C 26.348 59.191, 34.244 64.360, 42.373 67.041 C 45.279 68, 49.647 69.834, 52.079 71.117 C 59.301 74.926, 75.242 74.585, 84.018 70.433 C 87.583 68.745, 93.217 66.121, 96.537 64.601 C 108.902 58.938, 124.958 42.954, 123.624 37.636 C 122.621 33.643, 108.911 19.859, 102.093 15.990 C 98.711 14.071, 93.430 10.590, 90.360 8.257 C 87.289 5.923, 83.027 3.489, 80.888 2.848 C 78.750 2.208, 77 1.305, 77 0.842 C 77 0.379, 72.500 0, 67 0 C 61.500 0, 56.998 0.337, 56.996 0.750 M 55.061 12.971 C 48 16.945, 45.774 19.026, 46.325 21.136 C 46.646 22.364, 46.331 22.680, 45.213 22.252 C 44.078 21.816, 43.822 22.095, 44.275 23.275 C 44.691 24.359, 44.464 24.732, 43.592 24.397 C 39.592 22.862, 37.854 44.112, 41.416 51 C 44.390 56.750, 52.209 63.577, 58.041 65.513 C 84.999 74.468, 108.196 43.263, 90.614 21.695 C 83.959 13.531, 78.541 10.709, 68.688 10.272 C 61.067 9.935, 60.124 10.121, 55.061 12.971 M 56.870 15.897 C 40.506 26.040, 38.418 47.267, 52.690 58.386 C 64.853 67.862, 83.201 63.545, 89.942 49.621 C 92.145 45.069, 92.930 32, 91 32 C 90.450 32, 90 32.406, 90 32.902 C 90 34.500, 84.093 35.986, 81.563 35.024 C 74.336 32.276, 74.516 22.742, 81.851 19.818 L 84.500 18.762 81.708 17.784 C 79.294 16.938, 79.091 16.582, 80.208 15.153 C 81.341 13.703, 81.300 13.656, 79.872 14.771 C 78.643 15.731, 77.547 15.778, 75.405 14.964 C 71.546 13.497, 59.788 14.089, 56.870 15.897 M 3.263 75.312 C -1.595 78.596, -1.564 86.426, 3.319 89.750 C 11.037 95.005, 19.902 91.059, 19.968 82.339 C 20.030 74.217, 10.694 70.290, 3.263 75.312 M 85 74.393 C 85 75.159, 85.675 76.045, 86.500 76.362 C 87.585 76.778, 88 78.478, 88 82.500 C 88 86.522, 87.585 88.222, 86.500 88.638 C 85.675 88.955, 85 89.841, 85 90.607 C 85 91.688, 86.897 92, 93.471 92 L 101.943 92 102.832 88.750 C 103.713 85.532, 102.319 81.947, 101.285 84.771 C 100.602 86.636, 95.377 89.082, 93.563 88.386 C 91.565 87.619, 91.513 84, 93.500 84 C 94.325 84, 95 84.450, 95 85 C 95 85.550, 95.702 86, 96.560 86 C 97.747 86, 98.046 85.121, 97.810 82.327 C 97.511 78.788, 95 76.187, 95 79.417 C 95 80.287, 94.294 81, 93.430 81 C 92.375 81, 91.966 80.263, 92.180 78.750 C 92.573 75.983, 97.746 75.932, 99.752 78.675 C 101.653 81.275, 103.353 79.059, 102.062 75.663 C 101.082 73.084, 100.795 73, 93.025 73 C 86.832 73, 85 73.318, 85 74.393 M 23.750 78.759 C 21.919 79.165, 21.263 82, 23 82 C 23.564 82, 24 84.833, 24 88.500 C 24 92.167, 23.564 95, 23 95 C 22.450 95, 22 95.675, 22 96.500 C 22 97.588, 23.120 98, 26.079 98 C 30.092 98, 30.148 97.951, 29.500 95 C 28.894 92.241, 29.059 92, 31.560 92 C 35.013 92, 36.928 89.488, 36.968 84.905 C 37.019 79.176, 32.128 76.902, 23.750 78.759 M 47.299 80.250 C 40.592 87.614, 42.516 92, 52.453 92 C 56.538 92, 62.333 86.373, 61.835 82.890 C 61.136 78.002, 51.020 76.165, 47.299 80.250 M 68.750 78.745 C 66.918 79.165, 66.265 82, 68 82 C 68.550 82, 69 83.575, 69 85.500 C 69 87.425, 68.550 89, 68 89 C 67.450 89, 67 89.675, 67 90.500 C 67 91.578, 68.101 92, 70.912 92 L 74.824 92 74.662 87.356 C 74.550 84.153, 74.936 82.559, 75.905 82.221 C 77.042 81.824, 77.194 82.711, 76.702 86.865 L 76.094 92 80.047 92 C 82.894 92, 84 91.580, 84 90.500 C 84 89.675, 83.550 89, 83 89 C 82.450 89, 82 87.002, 82 84.559 C 82 82.116, 81.456 79.782, 80.792 79.371 C 79.444 78.538, 71.458 78.122, 68.750 78.745 M 104 79.480 C 104 80.224, 104.359 80.983, 104.797 81.167 C 105.894 81.625, 110 90.614, 110 92.556 C 110 93.711, 109.429 93.954, 107.875 93.460 C 106.582 93.050, 105.444 93.282, 104.968 94.052 C 103.604 96.259, 105.106 98.001, 108.357 97.983 C 111.213 97.967, 111.721 97.455, 113.927 92.361 C 115.262 89.279, 117.400 85.216, 118.677 83.334 C 122.051 78.362, 121.830 78.176, 112.500 78.150 C 106.008 78.132, 104 78.446, 104 79.480 M 124.051 79.758 C 116.844 85.593, 126.213 95.741, 133.862 90.384 C 136.809 88.320, 135.253 86.259, 132.043 87.977 C 130.385 88.864, 129.533 88.857, 128.436 87.947 C 126.065 85.979, 126.780 85.239, 131.105 85.179 C 136.127 85.110, 136.490 84.793, 134.931 81.836 C 132.665 77.535, 127.916 76.628, 124.051 79.758" stroke="none" fill="#111111" fill-rule="evenodd"/>
</svg>