<svg width="556" height="556" viewBox="0 0 556 556" fill="none" xmlns="http://www.w3.org/2000/svg">
<path d="M277.069 422.431C361.825 423.268 431.213 355.239 432.051 270.482C432.174 258 430.803 245.852 428.105 234.206C411.157 301.315 350.059 350.678 277.785 349.964C205.51 349.249 145.399 298.689 129.781 231.258C126.854 242.848 125.244 254.967 125.12 267.449C124.283 352.206 192.312 421.593 277.069 422.431Z" fill="#0027C2"/>
<ellipse cx="94.936" cy="93.0824" rx="94.936" ry="93.0824" transform="matrix(-0.999757 0.0220307 0.0220307 0.999757 370.854 128.535)" fill="#4B6FFF"/>
<path d="M278 0C124.465 0 0 124.465 0 278C0 431.535 124.465 556 278 556C431.535 556 556 431.535 556 278C556 124.465 431.535 0 278 0ZM277.976 80.6289C386.968 80.6291 475.323 168.984 475.323 277.977C475.323 386.969 386.968 475.324 277.976 475.324C168.983 475.324 80.6281 386.969 80.6279 277.977C80.6279 168.984 168.983 80.6289 277.976 80.6289Z" fill="#0027C2"/>
<ellipse cx="20.7044" cy="20.4002" rx="20.7044" ry="20.4002" transform="matrix(-1 0 0 1 269.32 246.512)" fill="#0027C2"/>
<ellipse cx="14.8557" cy="14.6334" rx="14.8557" ry="14.6334" transform="matrix(-1 0 0 1 257.623 199.418)" fill="#0027C2"/>
<ellipse cx="8.27005" cy="8.15308" rx="8.27005" ry="8.15308" transform="matrix(-1 0 0 1 244.451 165.285)" fill="#0027C2"/>
<ellipse cx="11.3816" cy="11.2178" rx="11.3816" ry="11.2178" transform="matrix(-1 0 0 1 292.082 220.004)" fill="#00197B"/>
<ellipse cx="25.0441" cy="24.6932" rx="25.0441" ry="24.6932" transform="matrix(-1 0 0 1 328.088 165.285)" fill="#0027C2"/>
</svg>
